<?xml version="1.0" encoding="UTF-8" standalone="no"?>
<svg
   id="Layer_1"
   data-name="Layer 1"
   viewBox="0 0 465.17117 153.06"
   version="1.1"
   sodipodi:docname="ids_logo-colored.svg"
   width="465.17117"
   height="153.06"
   inkscape:version="1.2 (1:1.2.1+202207142221+cd75a1ee6d)"
   xmlns:inkscape="http://www.inkscape.org/namespaces/inkscape"
   xmlns:sodipodi="http://sodipodi.sourceforge.net/DTD/sodipodi-0.dtd"
   xmlns="http://www.w3.org/2000/svg"
   xmlns:svg="http://www.w3.org/2000/svg">
  <sodipodi:namedview
     id="namedview2402"
     pagecolor="#ffffff"
     bordercolor="#666666"
     borderopacity="1.0"
     inkscape:showpageshadow="2"
     inkscape:pageopacity="0.0"
     inkscape:pagecheckerboard="0"
     inkscape:deskcolor="#d1d1d1"
     showgrid="false"
     inkscape:zoom="2.3476703"
     inkscape:cx="221.49618"
     inkscape:cy="61.550382"
     inkscape:window-width="1920"
     inkscape:window-height="964"
     inkscape:window-x="0"
     inkscape:window-y="0"
     inkscape:window-maximized="1"
     inkscape:current-layer="Layer_1" />
  <defs
     id="defs2387">
    <style
       id="style2364">.cls-1{fill:#626161;}.cls-2{fill:url(#linear-gradient);}.cls-3{fill:url(#linear-gradient-2);}.cls-4{fill:url(#linear-gradient-3);}</style>
    <linearGradient
       id="linear-gradient"
       x1="147.44"
       y1="37.990002"
       x2="67"
       y2="160.95"
       gradientUnits="userSpaceOnUse"
       gradientTransform="translate(-37.66,-81.04)">
      <stop
         offset="0.31"
         stop-color="#56519d"
         id="stop2366" />
      <stop
         offset="0.81"
         stop-color="#099ecb"
         id="stop2368" />
      <stop
         offset="0.86"
         stop-color="#00a7d0"
         id="stop2370" />
    </linearGradient>
    <linearGradient
       id="linear-gradient-2"
       x1="17.629999"
       y1="208.83"
       x2="154.71001"
       y2="215.59"
       gradientUnits="userSpaceOnUse"
       gradientTransform="translate(-37.66,-81.04)">
      <stop
         offset="0.06"
         stop-color="#564e9c"
         id="stop2373" />
      <stop
         offset="0.61"
         stop-color="#0b9bc9"
         id="stop2375" />
      <stop
         offset="0.69"
         stop-color="#00a7d0"
         id="stop2377" />
    </linearGradient>
    <linearGradient
       id="linear-gradient-3"
       x1="205.07001"
       y1="221.3"
       x2="135.87"
       y2="124.03"
       gradientUnits="userSpaceOnUse"
       gradientTransform="translate(-37.66,-81.04)">
      <stop
         offset="0.06"
         stop-color="#56519d"
         id="stop2380" />
      <stop
         offset="0.77"
         stop-color="#099ecb"
         id="stop2382" />
      <stop
         offset="0.85"
         stop-color="#00a7d0"
         id="stop2384" />
    </linearGradient>
  </defs>
  <path
     class="cls-1"
     d="M 198.55,134.66 V 11.17 h 25.26 v 123.49 z"
     id="path2389" />
  <path
     class="cls-1"
     d="m 358.83,97.26 a 58,58 0 0 1 -12.55,19.58 59,59 0 0 1 -19.36,13.06 62.71,62.71 0 0 1 -24.69,4.76 H 257.44 V 11.17 h 44.79 a 63.59,63.59 0 0 1 24.69,4.68 57.22,57.22 0 0 1 31.91,32.46 65.22,65.22 0 0 1 4.43,24.25 v 0.4 a 65.93,65.93 0 0 1 -4.43,24.3 z m -21.99,-24.3 a 42.85,42.85 0 0 0 -2.5,-15 35.74,35.74 0 0 0 -7,-11.82 31.21,31.21 0 0 0 -11,-7.71 35.61,35.61 0 0 0 -14.11,-2.74 h -19.52 v 74.44 h 19.52 a 36.48,36.48 0 0 0 14.11,-2.64 30.36,30.36 0 0 0 10.91,-7.53 36.29,36.29 0 0 0 7,-11.65 41.87,41.87 0 0 0 2.54,-15 z"
     id="path2391" />
  <path
     class="cls-1"
     d="m 462.04,114.46 a 33.37,33.37 0 0 1 -8.64,12 38,38 0 0 1 -13.23,7.41 53.54,53.54 0 0 1 -17,2.56 71.45,71.45 0 0 1 -25.83,-4.86 67.27,67.27 0 0 1 -23,-14.91 l 15,-19.23 a 74,74 0 0 0 16.16,10.94 40.59,40.59 0 0 0 18.13,4.06 q 7.88,0 12.22,-3.09 a 9.9,9.9 0 0 0 4.35,-8.56 v -0.35 a 11.41,11.41 0 0 0 -0.91,-4.67 9.62,9.62 0 0 0 -3.45,-3.8 35.09,35.09 0 0 0 -7.08,-3.53 115.75,115.75 0 0 0 -11.76,-3.71 134.67,134.67 0 0 1 -15.79,-5.11 43.41,43.41 0 0 1 -12,-7 28,28 0 0 1 -7.65,-10.32 q -2.72,-6.13 -2.72,-15.33 V 46.6 a 38.21,38.21 0 0 1 2.93,-15.26 34.64,34.64 0 0 1 8.23,-11.73 36.36,36.36 0 0 1 12.66,-7.58 47.4,47.4 0 0 1 16.21,-2.65 64.19,64.19 0 0 1 23.21,4.06 65.79,65.79 0 0 1 19.44,11.64 L 448.4,45.54 A 82.4,82.4 0 0 0 433.34,36.66 36.37,36.37 0 0 0 418.57,33.4 q -7.38,0 -11.07,3.08 a 9.64,9.64 0 0 0 -3.69,7.68 v 0.35 a 11.88,11.88 0 0 0 1.06,5.21 10.1,10.1 0 0 0 3.87,4 35.15,35.15 0 0 0 7.65,3.36 q 4.86,1.59 12.26,3.7 a 111.93,111.93 0 0 1 15.54,5.56 42.88,42.88 0 0 1 11.51,7.41 28.12,28.12 0 0 1 7.08,10.14 36.72,36.72 0 0 1 2.38,13.94 v 0.35 a 40.78,40.78 0 0 1 -3.12,16.28 z"
     id="path2393" />
  <path
     class="cls-2"
     d="m 76.52,0.01 c -0.46,31.54 -9.25,57.12 -20.47,76.55 -11.22,19.43 -29,39.83 -56,56 C 0.5,101.02 9.29,75.44 20.51,56.01 31.73,36.58 49.43,16.17 76.52,0.01 Z"
     id="path2395"
     style="fill:url(#linear-gradient)" />
  <path
     class="cls-3"
     d="m 0,132.55 c 27.54,-15.38 54.08,-20.59 76.52,-20.59 22.44,0 49,5.17 76.51,20.55 -27.53,15.37 -54.08,20.55 -76.51,20.55 -22.43,0 -48.98,-5.1 -76.52,-20.51 z"
     id="path2397"
     style="fill:url(#linear-gradient-2)" />
  <path
     class="cls-4"
     d="M 153.03,132.55 C 125.95,116.39 108.19,95.99 96.98,76.55 85.77,57.11 76.98,31.55 76.52,0 c 27.08,16.16 44.84,36.56 56,56 11.16,19.44 20.06,45.01 20.51,76.55 z"
     id="path2399"
     style="fill:url(#linear-gradient-3)" />
</svg>
