<svg id="Layer_1" data-name="Layer 1" xmlns="http://www.w3.org/2000/svg" viewBox="0 0 89.27 29.38"><defs><style>.cls-1{fill:#fff;}</style></defs><path class="cls-1" d="M38.11,25.84V2.14H43v23.7Z"/><path class="cls-1" d="M68.87,18.66a11.08,11.08,0,0,1-2.41,3.76,11.36,11.36,0,0,1-3.72,2.51,11.94,11.94,0,0,1-4.73.91h-8.6V2.14H58a12.12,12.12,0,0,1,4.73.9,11,11,0,0,1,6.13,6.23,12.44,12.44,0,0,1,.85,4.65V14A12.58,12.58,0,0,1,68.87,18.66ZM64.65,14a8.14,8.14,0,0,0-.49-2.88,6.8,6.8,0,0,0-1.35-2.26,5.93,5.93,0,0,0-2.1-1.48A6.81,6.81,0,0,0,58,6.85H54.26V21.13H58a7,7,0,0,0,2.7-.5,5.88,5.88,0,0,0,2.1-1.46,7,7,0,0,0,1.35-2.23,8,8,0,0,0,.49-2.88Z"/><path class="cls-1" d="M88.68,22A6.4,6.4,0,0,1,87,24.27a7.4,7.4,0,0,1-2.54,1.42,10.21,10.21,0,0,1-3.27.49,13.65,13.65,0,0,1-4.94-.93,13,13,0,0,1-4.41-2.86l2.86-3.69a14.43,14.43,0,0,0,3.11,2.1,7.78,7.78,0,0,0,3.47.78,4,4,0,0,0,2.35-.6,1.88,1.88,0,0,0,.83-1.64v-.07a2.08,2.08,0,0,0-.17-.89,1.86,1.86,0,0,0-.66-.73A6.83,6.83,0,0,0,82.29,17c-.58-.22-1.33-.46-2.26-.71a26.36,26.36,0,0,1-3-1,8.39,8.39,0,0,1-2.3-1.34,5.41,5.41,0,0,1-1.47-2A7.27,7.27,0,0,1,72.71,9V9A7.4,7.4,0,0,1,73.27,6a6.64,6.64,0,0,1,1.58-2.25,7.07,7.07,0,0,1,2.43-1.46,9.1,9.1,0,0,1,3.11-.51,12.36,12.36,0,0,1,4.46.78,12.87,12.87,0,0,1,3.73,2.24L86.06,8.74A15.88,15.88,0,0,0,83.16,7a7.06,7.06,0,0,0-2.83-.62A3.3,3.3,0,0,0,78.2,7a1.86,1.86,0,0,0-.71,1.47v.07a2.23,2.23,0,0,0,.21,1,1.91,1.91,0,0,0,.74.76,6.48,6.48,0,0,0,1.47.64c.62.21,1.4.44,2.35.71a22.2,22.2,0,0,1,3,1.07,8.55,8.55,0,0,1,2.22,1.42,5.44,5.44,0,0,1,1.35,1.95,7,7,0,0,1,.46,2.68v.06A7.87,7.87,0,0,1,88.68,22Z"/><path class="cls-1" d="M14.69,0a30,30,0,0,1-3.93,14.69A30.08,30.08,0,0,1,0,25.44,29.91,29.91,0,0,1,3.93,10.75,29.93,29.93,0,0,1,14.69,0Z"/><path class="cls-1" d="M0,25.44a30,30,0,0,1,14.69-4,30,30,0,0,1,14.68,4,30,30,0,0,1-14.68,3.94A30,30,0,0,1,0,25.44Z"/><path class="cls-1" d="M29.37,25.44A30.08,30.08,0,0,1,18.61,14.69,29.91,29.91,0,0,1,14.69,0,30,30,0,0,1,25.44,10.75,30,30,0,0,1,29.37,25.44Z"/></svg>